<?xml version="1.0" encoding="UTF-8"?>
<svg xmlns="http://www.w3.org/2000/svg" xmlns:xlink="http://www.w3.org/1999/xlink" width="527px" height="350px" viewBox="0 0 527 350" version="1.1">
<defs>
<filter id="alpha" filterUnits="objectBoundingBox" x="0%" y="0%" width="100%" height="100%">
  <feColorMatrix type="matrix" in="SourceGraphic" values="0 0 0 0 1 0 0 0 0 1 0 0 0 0 1 0 0 0 1 0"/>
</filter>
<mask id="mask0">
  <g filter="url(#alpha)">
<rect x="0" y="0" width="527" height="350" style="fill:rgb(0%,0%,0%);fill-opacity:0.2;stroke:none;"/>
  </g>
</mask>
<clipPath id="clip1">
  <rect x="0" y="0" width="527" height="350"/>
</clipPath>
<g id="surface5" clip-path="url(#clip1)">
<path style=" stroke:none;fill-rule:nonzero;fill:rgb(0%,0%,0%);fill-opacity:1;" d="M 281.632812 328.507812 L 283.058594 328.507812 L 283.058594 263.507812 L 316.351562 263.507812 L 316.351562 262.082031 L 283.058594 262.082031 L 283.058594 234.65625 L 308.769531 234.65625 C 308.394531 234.175781 308.003906 233.703125 307.605469 233.238281 L 283.058594 233.238281 L 283.058594 215.121094 C 282.589844 214.921875 282.113281 214.726562 281.632812 214.542969 L 281.632812 233.238281 L 253.65625 233.238281 L 253.65625 210.027344 C 253.179688 210.050781 252.707031 210.082031 252.230469 210.121094 L 252.230469 233.238281 L 229.914062 233.238281 L 229.914062 215.921875 C 229.433594 216.132812 228.960938 216.355469 228.492188 216.589844 L 228.492188 233.238281 L 209.730469 233.238281 L 209.730469 234.65625 L 228.492188 234.65625 L 228.492188 262.082031 L 209.730469 262.082031 L 209.730469 263.507812 L 228.492188 263.507812 L 228.492188 328.507812 L 229.914062 328.507812 L 229.914062 263.507812 C 242.238281 263.503906 252.234375 273.5 252.230469 285.832031 L 252.230469 328.507812 L 253.65625 328.507812 L 253.65625 263.507812 L 281.632812 263.507812 Z M 229.914062 262.082031 L 229.914062 234.65625 L 252.230469 234.65625 L 252.230469 262.082031 Z M 253.65625 262.082031 L 253.65625 234.65625 L 254.21875 234.65625 C 269.359375 234.65625 281.632812 246.9375 281.632812 262.082031 Z M 253.65625 262.082031 "/>
</g>
</defs>
<g id="surface1">
<path style=" stroke:none;fill-rule:nonzero;fill:rgb(94.901961%,94.901961%,94.901961%);fill-opacity:1;" d="M 267.015625 98.398438 C 262.316406 90.621094 256.746094 82.320312 248.023438 79.78125 C 237.925781 76.839844 227.550781 82.683594 218.75 88.445312 C 192.429688 105.683594 167.085938 124.359375 142.828125 144.398438 L 142.855469 144.699219 C 161.738281 143.398438 180.625 142.09375 199.507812 140.792969 C 213.152344 139.851562 227.265625 138.78125 239.320312 132.324219 C 243.898438 129.875 248.355469 126.601562 253.542969 126.371094 C 259.984375 126.089844 265.601562 130.589844 270.015625 135.292969 C 296.125 163.101562 303.679688 205.628906 332.972656 230.066406 C 314.5 184.5 292.445312 140.472656 267.015625 98.398438 Z M 267.015625 98.398438 "/>
<path style=" stroke:none;fill-rule:nonzero;fill:rgb(89.411765%,89.411765%,89.411765%);fill-opacity:1;" d="M 427.503906 334.28125 C 424.617188 330.632812 423.4375 329.78125 420.589844 326.097656 C 397.398438 296.097656 375.605469 265.085938 355.199219 233.058594 C 341.339844 211.304688 328.171875 189.136719 315.6875 166.546875 C 309.742188 155.808594 303.960938 144.988281 298.34375 134.082031 C 293.984375 125.625 289.722656 117.117188 285.558594 108.558594 C 284.367188 106.113281 283.210938 103.65625 282.058594 101.195312 C 279.34375 95.410156 276.683594 89.59375 273.824219 83.882812 C 270.566406 77.378906 266.597656 70.554688 260.617188 66.183594 C 257.894531 64.113281 254.636719 62.859375 251.230469 62.570312 C 246.359375 62.253906 241.863281 64.265625 237.640625 66.464844 C 206.730469 82.585938 177.796875 102.796875 151.621094 125.796875 C 125.382812 148.847656 101.929688 174.890625 81.738281 203.394531 C 81.121094 204.273438 79.660156 203.433594 80.285156 202.542969 C 82.738281 199.070312 85.242188 195.636719 87.796875 192.238281 C 119.53125 150.019531 158.441406 113.714844 202.753906 84.980469 C 210.210938 80.148438 217.804688 75.542969 225.539062 71.164062 C 229.4375 68.953125 233.355469 66.773438 237.335938 64.726562 C 241.242188 62.722656 245.386719 60.917969 249.847656 60.851562 C 265.027344 60.613281 272.886719 77.808594 278.285156 89.378906 C 279.980469 93.019531 281.699219 96.652344 283.433594 100.269531 C 290 114.007812 296.820312 127.621094 303.894531 141.109375 C 308.257812 149.4375 312.71875 157.714844 317.277344 165.945312 C 331.453125 191.574219 346.523438 216.6875 362.488281 241.277344 C 383.632812 273.851562 404.609375 302.628906 428.695312 333.089844 C 429.359375 333.933594 428.171875 335.136719 427.503906 334.28125 Z M 427.503906 334.28125 "/>
<path style=" stroke:none;fill-rule:nonzero;fill:rgb(89.411765%,89.411765%,89.411765%);fill-opacity:1;" d="M 150.121094 117.308594 C 149.242188 116.324219 148.363281 115.339844 147.476562 114.355469 C 140.476562 106.613281 132.964844 98.960938 123.355469 94.519531 C 118.773438 92.335938 113.769531 91.175781 108.691406 91.121094 C 103.445312 91.136719 98.316406 92.515625 93.46875 94.441406 C 91.175781 95.359375 88.933594 96.398438 86.726562 97.503906 C 84.207031 98.773438 81.726562 100.128906 79.261719 101.496094 C 74.632812 104.058594 70.0625 106.730469 65.554688 109.519531 C 56.582031 115.066406 47.894531 121.035156 39.484375 127.425781 C 35.125 130.742188 30.855469 134.167969 26.675781 137.699219 C 22.789062 140.980469 18.980469 144.351562 15.25 147.808594 C 14.449219 148.542969 13.261719 147.351562 14.058594 146.617188 C 15.039062 145.699219 16.035156 144.789062 17.03125 143.890625 C 19.839844 141.351562 22.691406 138.859375 25.589844 136.417969 C 30.875 131.957031 36.300781 127.667969 41.859375 123.550781 C 50.503906 117.144531 59.449219 111.171875 68.6875 105.636719 C 73.308594 102.871094 77.988281 100.222656 82.734375 97.691406 C 84.164062 96.925781 85.617188 96.179688 87.082031 95.472656 C 90.410156 93.792969 93.863281 92.382812 97.417969 91.261719 C 102.449219 89.632812 107.777344 89.109375 113.03125 89.726562 C 118.101562 90.464844 122.988281 92.15625 127.433594 94.710938 C 136.871094 99.988281 144.191406 108.148438 151.3125 116.109375 C 152.03125 116.917969 150.847656 118.117188 150.121094 117.308594 Z M 150.121094 117.308594 "/>
<path style=" stroke:none;fill-rule:nonzero;fill:rgb(89.411765%,89.411765%,89.411765%);fill-opacity:1;" d="M 343.496094 197.546875 L 366.109375 189.273438 L 377.339844 185.164062 C 380.996094 183.828125 384.644531 182.304688 388.421875 181.347656 C 391.707031 180.410156 395.195312 180.453125 398.457031 181.476562 C 401.363281 182.550781 404.027344 184.203125 406.28125 186.328125 C 408.589844 188.453125 410.734375 190.742188 412.703125 193.183594 C 415.148438 196.121094 417.554688 199.09375 419.972656 202.050781 C 429.960938 214.265625 439.878906 226.535156 449.734375 238.855469 C 459.585938 251.175781 469.375 263.546875 479.097656 275.972656 C 488.84375 288.429688 498.523438 300.9375 508.136719 313.496094 C 509.3125 315.035156 510.488281 316.574219 511.664062 318.113281 C 512.316406 318.964844 513.777344 318.125 513.121094 317.261719 C 503.4375 304.578125 493.6875 291.945312 483.867188 279.359375 C 474.027344 266.75 464.117188 254.191406 454.136719 241.683594 C 444.160156 229.179688 434.113281 216.730469 424.003906 204.332031 C 421.484375 201.246094 418.960938 198.160156 416.429688 195.078125 C 414.300781 192.480469 412.191406 189.851562 409.851562 187.433594 C 405.558594 182.992188 400.195312 179.066406 393.777344 178.960938 C 390 178.898438 386.347656 180.09375 382.839844 181.363281 C 379.0625 182.734375 375.289062 184.125 371.511719 185.507812 L 348.742188 193.839844 L 343.046875 195.921875 C 342.035156 196.292969 342.472656 197.921875 343.496094 197.546875 Z M 343.496094 197.546875 "/>
<path style=" stroke:none;fill-rule:nonzero;fill:rgb(94.901961%,94.901961%,94.901961%);fill-opacity:1;" d="M 120.378906 104.265625 C 108.886719 98.355469 94.167969 99.511719 83.609375 106.894531 C 103.75 110.371094 123.675781 115.023438 143.277344 120.824219 C 135.136719 116.054688 128.769531 108.578125 120.378906 104.265625 Z M 120.378906 104.265625 "/>
<path style=" stroke:none;fill-rule:nonzero;fill:rgb(94.901961%,94.901961%,94.901961%);fill-opacity:1;" d="M 83.496094 106.875 L 81.28125 108.671875 C 82.03125 108.042969 82.808594 107.453125 83.609375 106.894531 C 83.570312 106.886719 83.53125 106.882812 83.496094 106.875 Z M 83.496094 106.875 "/>
<path style=" stroke:none;fill-rule:nonzero;fill:rgb(94.901961%,94.901961%,94.901961%);fill-opacity:1;" d="M 405.429688 197.628906 C 403.207031 194.917969 400.796875 192.082031 397.46875 190.980469 L 394.359375 191.101562 C 418.023438 232.929688 449.984375 269.480469 488.28125 298.507812 C 460.664062 264.882812 433.046875 231.253906 405.429688 197.628906 Z M 405.429688 197.628906 "/>
<path style=" stroke:none;fill-rule:nonzero;fill:rgb(94.901961%,94.901961%,94.901961%);fill-opacity:1;" d="M 212.117188 175.269531 C 213.554688 180.5 216.796875 185.050781 221.265625 188.117188 C 222.996094 189.292969 225.039062 190.421875 225.632812 192.429688 C 225.941406 193.707031 225.75 195.058594 225.09375 196.199219 C 224.441406 197.324219 223.648438 198.363281 222.730469 199.289062 L 222.644531 199.601562 C 218.355469 197.058594 214.277344 193.84375 211.90625 189.457031 C 209.539062 185.070312 209.207031 179.320312 212.117188 175.269531 "/>
<path style=" stroke:none;fill-rule:nonzero;fill:rgb(94.901961%,94.901961%,94.901961%);fill-opacity:1;" d="M 354.898438 299.699219 C 356.335938 304.929688 359.578125 309.480469 364.046875 312.546875 C 365.773438 313.722656 367.820312 314.855469 368.410156 316.859375 C 368.722656 318.136719 368.53125 319.488281 367.875 320.628906 C 367.222656 321.757812 366.425781 322.792969 365.507812 323.71875 L 365.425781 324.035156 C 361.136719 321.492188 357.058594 318.277344 354.6875 313.886719 C 352.320312 309.5 351.988281 303.75 354.898438 299.699219 "/>
<path style=" stroke:none;fill-rule:nonzero;fill:rgb(94.901961%,94.901961%,94.901961%);fill-opacity:1;" d="M 69.949219 291.121094 C 71.386719 296.347656 74.628906 300.898438 79.097656 303.964844 C 80.828125 305.144531 82.871094 306.273438 83.464844 308.277344 C 83.773438 309.558594 83.582031 310.90625 82.929688 312.046875 C 82.273438 313.175781 81.480469 314.214844 80.5625 315.136719 L 80.476562 315.453125 C 76.191406 312.910156 72.109375 309.695312 69.742188 305.304688 C 67.371094 300.917969 67.042969 295.167969 69.949219 291.121094 "/>
<path style=" stroke:none;fill-rule:nonzero;fill:rgb(42.352942%,38.82353%,100%);fill-opacity:1;" d="M 429.105469 31.261719 C 429.105469 13.996094 415.113281 0 397.855469 0 C 380.59375 0 366.601562 13.996094 366.601562 31.261719 C 366.601562 48.527344 380.59375 62.523438 397.855469 62.523438 C 415.113281 62.523438 429.105469 48.527344 429.105469 31.261719 Z M 429.105469 31.261719 "/>
<path style=" stroke:none;fill-rule:nonzero;fill:rgb(94.117647%,94.117647%,94.117647%);fill-opacity:1;" d="M 454.253906 7.277344 C 439.105469 5.226562 421.8125 13.417969 417.886719 28.191406 C 415.859375 22.800781 410.578125 19.34375 404.824219 19.636719 C 399.074219 19.933594 394.175781 23.914062 392.707031 29.484375 L 394.441406 30.726562 C 426.898438 37.75 460.496094 37.597656 492.890625 30.28125 C 482.355469 19.207031 469.398438 9.324219 454.253906 7.277344 Z M 454.253906 7.277344 "/>
<path style=" stroke:none;fill-rule:nonzero;fill:rgb(94.117647%,94.117647%,94.117647%);fill-opacity:1;" d="M 389.296875 48.957031 C 374.148438 46.910156 356.859375 55.097656 352.933594 69.875 C 350.902344 64.484375 345.621094 61.023438 339.871094 61.320312 C 334.117188 61.613281 329.21875 65.597656 327.75 71.167969 L 329.484375 72.410156 C 361.941406 79.429688 395.542969 79.277344 427.933594 71.964844 C 417.398438 60.886719 404.441406 51.003906 389.296875 48.957031 Z M 389.296875 48.957031 "/>
<path style=" stroke:none;fill-rule:nonzero;fill:rgb(80.000001%,80.000001%,80.000001%);fill-opacity:1;" d="M 521.492188 56.839844 C 521.429688 56.839844 521.367188 56.828125 521.308594 56.808594 C 359.28125 5.554688 216.476562 12.257812 125.210938 26.90625 C 112.789062 28.898438 100.335938 31.199219 88.195312 33.746094 C 85.097656 34.398438 81.882812 35.09375 78.640625 35.816406 C 74.765625 36.679688 70.945312 37.570312 67.28125 38.457031 C 65.699219 38.832031 64.148438 39.210938 62.628906 39.589844 C 60.324219 40.160156 57.988281 40.75 55.484375 41.402344 C 52.683594 42.125 49.839844 42.882812 47.027344 43.652344 L 46.996094 43.664062 C 43.820312 44.53125 40.664062 45.421875 37.609375 46.3125 C 35.953125 46.792969 34.359375 47.261719 32.828125 47.726562 C 32.65625 47.773438 32.507812 47.820312 32.351562 47.867188 L 32.023438 47.96875 C 31.832031 48.027344 31.644531 48.082031 31.457031 48.136719 L 31.445312 48.140625 L 30.949219 48.296875 C 30.355469 48.472656 29.777344 48.648438 29.207031 48.824219 C 14.167969 53.460938 5.898438 56.761719 5.816406 56.792969 C 5.503906 56.921875 5.144531 56.769531 5.019531 56.453125 C 4.894531 56.140625 5.046875 55.78125 5.359375 55.65625 C 5.441406 55.625 13.753906 52.308594 28.847656 47.652344 C 29.417969 47.476562 30 47.300781 30.59375 47.121094 L 31.054688 46.976562 C 31.070312 46.972656 31.085938 46.96875 31.105469 46.960938 C 31.289062 46.910156 31.476562 46.851562 31.667969 46.792969 L 31.996094 46.695312 C 32.160156 46.644531 32.320312 46.597656 32.488281 46.550781 C 34.007812 46.089844 35.609375 45.617188 37.265625 45.136719 C 40.320312 44.246094 43.484375 43.351562 46.664062 42.484375 C 46.671875 42.480469 46.683594 42.476562 46.691406 42.476562 L 46.691406 42.472656 C 49.515625 41.699219 52.367188 40.941406 55.175781 40.214844 C 57.683594 39.5625 60.027344 38.96875 62.332031 38.398438 C 63.859375 38.019531 65.414062 37.640625 66.996094 37.265625 C 70.664062 36.375 74.492188 35.484375 78.371094 34.621094 C 81.621094 33.894531 84.839844 33.199219 87.945312 32.546875 C 100.105469 29.996094 112.578125 27.691406 125.015625 25.695312 C 216.414062 11.027344 359.421875 4.3125 521.675781 55.640625 C 521.964844 55.734375 522.144531 56.019531 522.097656 56.320312 C 522.050781 56.617188 521.792969 56.839844 521.492188 56.839844 Z M 521.492188 56.839844 "/>
<path style=" stroke:none;fill-rule:nonzero;fill:rgb(24.705882%,23.921569%,33.725491%);fill-opacity:1;" d="M 161.15625 257.34375 C 160.945312 256.722656 160.585938 256.164062 160.117188 255.707031 C 159.941406 255.546875 159.753906 255.402344 159.550781 255.273438 C 157.953125 254.207031 155.5625 253.96875 154.042969 255.273438 C 153.890625 255.40625 153.75 255.550781 153.621094 255.707031 C 153.167969 256.265625 152.699219 256.8125 152.222656 257.34375 C 151.4375 258.238281 150.636719 259.105469 149.796875 259.945312 C 149.558594 260.175781 149.316406 260.414062 149.074219 260.648438 C 148.933594 260.789062 148.789062 260.925781 148.648438 261.058594 C 148.109375 261.574219 147.558594 262.070312 147 262.5625 C 146.707031 262.824219 146.414062 263.082031 146.113281 263.332031 C 145.664062 263.707031 145.21875 264.082031 144.765625 264.441406 C 144.722656 264.472656 144.679688 264.503906 144.636719 264.542969 C 144.625 264.546875 144.617188 264.558594 144.605469 264.566406 C 144.597656 264.566406 144.59375 264.566406 144.585938 264.578125 C 144.410156 264.699219 144.316406 264.761719 144.25 264.816406 C 144.273438 264.804688 144.300781 264.785156 144.324219 264.773438 C 144.214844 264.859375 144.097656 264.945312 143.988281 265.03125 C 142.914062 265.820312 141.816406 266.582031 140.695312 267.292969 C 137.921875 269.070312 135.007812 270.617188 131.980469 271.921875 C 131.78125 272 131.570312 272.085938 131.363281 272.167969 C 123.441406 275.414062 114.851562 276.679688 106.332031 275.855469 C 105.460938 275.789062 104.589844 275.695312 103.71875 275.582031 C 102.714844 275.433594 101.714844 275.253906 100.722656 275.054688 C 96.945312 274.300781 93.246094 273.183594 89.679688 271.71875 C 85.222656 269.675781 80.980469 267.1875 77.019531 264.289062 C 76.40625 263.855469 75.789062 263.417969 75.171875 262.996094 C 75.875 261.269531 76.566406 259.539062 77.242188 257.796875 C 77.578125 256.957031 77.902344 256.117188 78.222656 255.273438 C 80.726562 248.757812 83.082031 242.179688 85.335938 235.578125 C 87.617188 228.890625 89.765625 222.164062 91.789062 215.398438 C 91.996094 214.714844 92.199219 214.027344 92.394531 213.339844 C 93.457031 209.765625 94.472656 206.183594 95.449219 202.59375 C 95.539062 202.246094 95.636719 201.902344 95.722656 201.554688 C 96.003906 200.523438 96.28125 199.492188 96.550781 198.464844 C 97.164062 196.140625 95.777344 193.363281 93.339844 192.804688 C 90.898438 192.179688 88.402344 193.601562 87.691406 196.019531 C 87.425781 197.011719 87.164062 198 86.894531 198.992188 C 85.601562 203.789062 84.238281 208.574219 82.8125 213.339844 C 82.601562 214.027344 82.394531 214.714844 82.1875 215.398438 C 79.035156 225.785156 75.578125 236.0625 71.8125 246.238281 C 71.359375 247.46875 70.898438 248.699219 70.433594 249.921875 C 70.207031 250.523438 69.980469 251.125 69.746094 251.722656 C 69.300781 252.90625 68.839844 254.089844 68.378906 255.273438 C 68.117188 255.964844 67.847656 256.660156 67.578125 257.34375 C 67.398438 257.78125 67.226562 258.214844 67.058594 258.644531 C 65.308594 258.015625 63.5 257.582031 61.660156 257.34375 L 61.363281 257.308594 C 59.9375 257.136719 58.492188 257.148438 57.070312 257.34375 C 52.753906 257.847656 48.882812 260.242188 46.503906 263.878906 C 43.582031 268.484375 43.617188 275.066406 47.71875 278.976562 C 51.9375 283.003906 58.332031 282.972656 63.300781 280.453125 C 65.933594 279.027344 68.15625 276.945312 69.746094 274.410156 C 70.355469 273.492188 70.917969 272.539062 71.425781 271.558594 C 71.554688 271.644531 71.683594 271.730469 71.8125 271.824219 C 72.300781 272.167969 72.792969 272.515625 73.277344 272.859375 C 76.097656 274.902344 79.070312 276.730469 82.167969 278.320312 C 88.832031 281.632812 96.003906 283.804688 103.382812 284.738281 C 103.546875 284.757812 103.707031 284.78125 103.875 284.800781 C 104.6875 284.902344 105.507812 284.984375 106.332031 285.050781 C 118.109375 285.9375 129.902344 283.527344 140.390625 278.085938 C 141.277344 277.628906 142.160156 277.144531 143.03125 276.640625 C 144.386719 275.855469 145.707031 275.023438 147 274.140625 C 147.707031 273.660156 148.394531 273.179688 149.074219 272.667969 C 152.046875 270.480469 154.816406 268.027344 157.351562 265.34375 C 158.3125 264.332031 159.234375 263.289062 160.117188 262.210938 C 160.949219 261.332031 161.425781 260.175781 161.464844 258.964844 C 161.457031 258.410156 161.355469 257.863281 161.15625 257.34375 Z M 59.683594 271.945312 C 59.8125 271.855469 59.941406 271.753906 60.066406 271.65625 C 60.027344 271.75 59.851562 271.855469 59.683594 271.945312 Z M 61.652344 269.964844 C 61.511719 270.125 61.382812 270.285156 61.242188 270.445312 C 60.8125 270.925781 60.351562 271.375 59.863281 271.792969 C 59.796875 271.855469 59.722656 271.914062 59.648438 271.96875 C 59.554688 272.015625 59.46875 272.0625 59.382812 272.109375 C 59.121094 272.269531 58.851562 272.417969 58.574219 272.550781 C 58.035156 272.75 57.480469 272.90625 56.914062 273.011719 C 56.480469 273.042969 56.042969 273.046875 55.609375 273.023438 L 55.597656 273.023438 C 55.296875 272.957031 55 272.875 54.710938 272.78125 C 54.5625 272.707031 54.421875 272.621094 54.28125 272.535156 C 54.226562 272.484375 54.175781 272.4375 54.144531 272.40625 C 54.085938 272.351562 54.03125 272.292969 53.980469 272.226562 C 53.90625 272.097656 53.832031 271.976562 53.765625 271.855469 C 53.710938 271.6875 53.667969 271.527344 53.628906 271.371094 C 53.617188 271.089844 53.621094 270.808594 53.636719 270.53125 C 53.71875 270.136719 53.828125 269.753906 53.96875 269.378906 C 54.09375 269.109375 54.234375 268.851562 54.390625 268.605469 C 54.402344 268.582031 54.464844 268.484375 54.53125 268.371094 C 54.539062 268.367188 54.539062 268.367188 54.539062 268.359375 C 54.628906 268.253906 54.722656 268.144531 54.820312 268.046875 C 54.984375 267.863281 55.164062 267.703125 55.339844 267.539062 C 55.6875 267.3125 56.042969 267.105469 56.414062 266.917969 C 56.996094 266.710938 57.597656 266.550781 58.207031 266.433594 C 59.109375 266.363281 60.011719 266.371094 60.910156 266.460938 C 61.761719 266.605469 62.601562 266.8125 63.421875 267.078125 C 62.925781 268.046875 62.359375 268.976562 61.726562 269.863281 C 61.699219 269.898438 61.675781 269.933594 61.652344 269.964844 Z M 54.835938 267.949219 C 54.785156 268.035156 54.71875 268.117188 54.648438 268.1875 C 54.695312 268.097656 54.761719 268.015625 54.835938 267.949219 Z M 54.835938 267.949219 "/>
<path style=" stroke:none;fill-rule:nonzero;fill:rgb(24.705882%,23.921569%,33.725491%);fill-opacity:1;" d="M 142.738281 194.742188 C 142.679688 196.667969 142.625 198.59375 142.570312 200.515625 C 142.453125 204.789062 142.335938 209.0625 142.210938 213.339844 C 142.082031 218.152344 141.945312 222.960938 141.804688 227.769531 C 141.738281 230.253906 141.667969 232.734375 141.597656 235.21875 C 141.40625 241.90625 141.21875 248.589844 141.03125 255.273438 C 141.015625 255.964844 140.988281 256.652344 140.972656 257.34375 C 140.878906 260.660156 140.789062 263.976562 140.695312 267.292969 C 140.59375 270.890625 140.488281 274.488281 140.390625 278.085938 C 140.316406 280.785156 140.242188 283.484375 140.164062 286.183594 C 139.613281 305.757812 139.058594 325.328125 138.507812 344.898438 C 138.460938 347.417969 136.429688 349.449219 133.914062 349.496094 C 131.382812 349.476562 129.335938 347.429688 129.316406 344.898438 C 129.621094 333.890625 129.933594 322.882812 130.246094 311.875 C 130.523438 301.917969 130.804688 291.964844 131.085938 282.011719 C 131.179688 278.730469 131.269531 275.449219 131.363281 272.167969 C 131.503906 267.226562 131.644531 262.285156 131.78125 257.34375 C 131.796875 256.652344 131.824219 255.964844 131.839844 255.273438 C 131.851562 254.667969 131.871094 254.066406 131.890625 253.457031 C 132.160156 243.867188 132.429688 234.269531 132.699219 224.675781 C 132.808594 220.898438 132.914062 217.121094 133.019531 213.339844 C 133.140625 209.03125 133.261719 204.722656 133.386719 200.417969 C 133.441406 198.523438 133.488281 196.636719 133.542969 194.742188 C 133.59375 192.226562 135.621094 190.195312 138.140625 190.144531 C 140.671875 190.167969 142.714844 192.214844 142.738281 194.742188 Z M 142.738281 194.742188 "/>
<path style=" stroke:none;fill-rule:nonzero;fill:rgb(24.705882%,23.921569%,33.725491%);fill-opacity:1;" d="M 394.855469 196.019531 C 390.035156 214.273438 384.277344 232.265625 377.597656 249.921875 C 375.757812 254.792969 373.871094 259.65625 371.855469 264.457031 L 372.320312 263.359375 C 371.421875 265.648438 370.273438 267.828125 368.894531 269.863281 C 368.800781 269.996094 368.707031 270.125 368.609375 270.253906 C 369.085938 269.644531 369.175781 269.523438 368.878906 269.894531 C 368.722656 270.078125 368.570312 270.261719 368.410156 270.441406 C 367.980469 270.921875 367.519531 271.375 367.03125 271.792969 C 366.90625 271.898438 366.78125 272 366.65625 272.101562 L 367.230469 271.65625 C 367.164062 271.8125 366.695312 272.019531 366.550781 272.109375 C 366.078125 272.394531 365.585938 272.644531 365.078125 272.855469 L 366.175781 272.394531 C 365.339844 272.730469 364.46875 272.96875 363.582031 273.105469 L 364.804688 272.941406 C 363.929688 273.0625 363.046875 273.070312 362.167969 272.96875 L 363.390625 273.132812 C 362.675781 273.035156 361.972656 272.847656 361.304688 272.570312 L 362.402344 273.035156 C 362.046875 272.878906 361.703125 272.695312 361.375 272.484375 C 361.207031 272.378906 360.695312 271.988281 361.363281 272.5 C 362.058594 273.03125 361.453125 272.546875 361.3125 272.40625 C 361.191406 272.289062 361.085938 272.160156 360.96875 272.039062 C 360.429688 271.484375 361.578125 272.996094 361.210938 272.347656 C 361.015625 272.019531 360.835938 271.6875 360.671875 271.34375 L 361.136719 272.441406 C 360.925781 271.917969 360.777344 271.371094 360.691406 270.816406 L 360.855469 272.039062 C 360.765625 271.34375 360.765625 270.644531 360.851562 269.949219 L 360.6875 271.171875 C 360.800781 270.398438 361.003906 269.640625 361.296875 268.917969 L 360.835938 270.015625 C 361.039062 269.527344 361.28125 269.058594 361.558594 268.605469 C 361.683594 268.375 361.832031 268.152344 362.003906 267.949219 C 362.035156 267.960938 361.226562 268.878906 361.652344 268.414062 C 361.765625 268.292969 361.871094 268.164062 361.984375 268.042969 C 362.167969 267.851562 362.359375 267.675781 362.550781 267.496094 C 363.191406 266.886719 361.65625 268.085938 362.394531 267.605469 C 362.929688 267.253906 363.492188 266.945312 364.078125 266.683594 L 362.980469 267.148438 C 363.960938 266.746094 364.992188 266.46875 366.042969 266.328125 L 364.820312 266.492188 C 366.136719 266.339844 367.46875 266.355469 368.78125 266.539062 L 367.558594 266.375 C 369.21875 266.625 370.84375 267.082031 372.394531 267.734375 L 371.296875 267.273438 C 374.597656 268.691406 377.523438 270.796875 380.445312 272.859375 C 383.265625 274.902344 386.234375 276.726562 389.332031 278.320312 C 395.996094 281.632812 403.167969 283.804688 410.550781 284.738281 C 432.0625 287.375 453.4375 278.886719 467.285156 262.210938 C 468.117188 261.332031 468.59375 260.171875 468.632812 258.960938 C 468.621094 257.742188 468.140625 256.578125 467.285156 255.710938 C 465.597656 254.164062 462.414062 253.726562 460.785156 255.710938 C 459.242188 257.59375 457.582031 259.382812 455.816406 261.058594 C 454.992188 261.84375 454.148438 262.601562 453.277344 263.335938 C 452.785156 263.753906 452.28125 264.164062 451.769531 264.566406 C 451.53125 264.757812 450.777344 265.265625 451.933594 264.445312 C 451.667969 264.632812 451.414062 264.839844 451.152344 265.03125 C 447.292969 267.878906 443.113281 270.257812 438.695312 272.121094 L 439.792969 271.65625 C 435.050781 273.644531 430.074219 275.011719 424.980469 275.714844 L 426.203125 275.550781 C 420.964844 276.242188 415.65625 276.234375 410.421875 275.527344 L 411.640625 275.691406 C 406.40625 274.972656 401.285156 273.578125 396.410156 271.542969 L 397.507812 272.007812 C 392.800781 269.921875 388.335938 267.335938 384.1875 264.289062 C 382.03125 262.6875 379.753906 261.257812 377.378906 260 C 374.613281 258.585938 371.617188 257.675781 368.53125 257.3125 C 362.746094 256.628906 356.851562 258.882812 353.671875 263.882812 C 350.746094 268.480469 350.785156 275.066406 354.882812 278.976562 C 359.101562 283.003906 365.496094 282.972656 370.46875 280.449219 C 375.257812 278.023438 378.136719 272.980469 380.160156 268.226562 C 384.714844 257.527344 388.746094 246.582031 392.503906 235.578125 C 396.21875 224.695312 399.589844 213.699219 402.613281 202.59375 C 402.988281 201.21875 403.355469 199.839844 403.71875 198.464844 C 404.332031 196.140625 402.945312 193.363281 400.507812 192.808594 C 398.066406 192.179688 395.566406 193.601562 394.855469 196.019531 Z M 394.855469 196.019531 "/>
<path style=" stroke:none;fill-rule:nonzero;fill:rgb(24.705882%,23.921569%,33.725491%);fill-opacity:1;" d="M 440.710938 194.742188 L 439.058594 253.460938 L 437.414062 311.871094 L 436.480469 344.902344 C 436.503906 347.429688 438.550781 349.476562 441.078125 349.496094 C 443.597656 349.449219 445.625 347.417969 445.675781 344.902344 L 447.328125 286.183594 L 448.972656 227.773438 L 449.90625 194.742188 C 449.882812 192.214844 447.835938 190.167969 445.308594 190.144531 C 442.789062 190.195312 440.761719 192.226562 440.710938 194.742188 Z M 440.710938 194.742188 "/>
<use xlink:href="#surface5" mask="url(#mask0)"/>
<path style=" stroke:none;fill-rule:nonzero;fill:rgb(24.705882%,23.921569%,33.725491%);fill-opacity:1;" d="M 272.917969 309.015625 C 271.121094 317.035156 266.816406 324.269531 260.632812 329.675781 C 260.179688 330.066406 259.722656 330.445312 259.253906 330.820312 C 258.105469 330.925781 256.96875 331.03125 255.839844 331.140625 C 254.902344 331.226562 253.976562 331.316406 253.058594 331.402344 L 252.890625 331.421875 L 252.777344 330.414062 L 252.308594 326.347656 C 248.648438 320.371094 247.90625 313.050781 250.289062 306.460938 C 251.90625 302.097656 254.835938 298.242188 257.714844 294.417969 C 261.691406 289.132812 265.558594 283.910156 265.699219 277.46875 C 267.65625 279.972656 269.28125 282.71875 270.539062 285.640625 C 269.355469 286.199219 268.289062 286.984375 267.402344 287.949219 C 267.152344 288.226562 266.898438 288.613281 267.070312 288.941406 C 267.21875 289.226562 267.585938 289.292969 267.90625 289.328125 C 268.671875 289.410156 269.441406 289.488281 270.210938 289.566406 C 270.820312 289.636719 271.433594 289.695312 272.046875 289.765625 C 272.789062 292.199219 273.292969 294.699219 273.550781 297.230469 C 273.960938 301.167969 273.75 305.144531 272.917969 309.015625 Z M 272.917969 309.015625 "/>
<path style=" stroke:none;fill-rule:nonzero;fill:rgb(42.352942%,38.82353%,100%);fill-opacity:1;" d="M 293.261719 292.953125 C 289.648438 295.582031 287.53125 299.363281 285.890625 303.53125 C 284.207031 304.070312 282.691406 305.039062 281.496094 306.339844 C 281.246094 306.613281 280.996094 307 281.164062 307.332031 C 281.3125 307.613281 281.679688 307.679688 282 307.71875 C 282.765625 307.796875 283.539062 307.878906 284.304688 307.957031 C 282.660156 312.886719 281.152344 317.984375 278.25 322.148438 C 276.316406 324.894531 273.800781 327.179688 270.878906 328.835938 C 270.082031 329.289062 269.257812 329.695312 268.414062 330.054688 C 265.300781 330.292969 262.246094 330.546875 259.253906 330.820312 C 258.105469 330.925781 256.96875 331.03125 255.839844 331.140625 C 254.902344 331.226562 253.976562 331.316406 253.058594 331.402344 C 253.050781 331.066406 253.050781 330.730469 253.058594 330.390625 C 253.25 321.410156 256.554688 312.777344 262.402344 305.957031 C 262.679688 305.640625 262.960938 305.328125 263.246094 305.015625 C 266.210938 301.847656 269.695312 299.214844 273.550781 297.230469 C 279.621094 294.070312 286.425781 292.59375 293.261719 292.953125 Z M 293.261719 292.953125 "/>
<path style=" stroke:none;fill-rule:nonzero;fill:rgb(42.352942%,38.82353%,100%);fill-opacity:1;" d="M 256.898438 327.996094 L 256.195312 330.078125 L 255.839844 331.140625 C 254.902344 331.226562 253.976562 331.316406 253.058594 331.402344 L 252.890625 331.421875 C 251.875 331.523438 250.863281 331.628906 249.851562 331.734375 C 249.589844 331.425781 249.324219 331.113281 249.066406 330.796875 C 235.753906 314.667969 237.960938 290.808594 254.011719 277.402344 C 253.203125 281.636719 254.148438 285.695312 255.699219 289.722656 C 255.53125 289.789062 255.375 289.855469 255.21875 289.929688 C 254.035156 290.488281 252.96875 291.273438 252.082031 292.242188 C 251.832031 292.515625 251.582031 292.902344 251.753906 293.234375 C 251.898438 293.515625 252.265625 293.582031 252.585938 293.621094 C 253.351562 293.699219 254.125 293.78125 254.890625 293.859375 C 255.503906 293.925781 256.113281 293.988281 256.726562 294.054688 C 257.015625 294.085938 257.304688 294.117188 257.59375 294.148438 C 257.636719 294.238281 257.671875 294.324219 257.714844 294.417969 C 259.460938 298.203125 261.34375 302.011719 262.402344 305.957031 C 262.667969 306.949219 262.875 307.953125 263.027344 308.96875 C 263.984375 315.914062 261.726562 322.914062 256.898438 327.996094 Z M 256.898438 327.996094 "/>
<path style=" stroke:none;fill-rule:nonzero;fill:rgb(24.705882%,23.921569%,33.725491%);fill-opacity:1;" d="M 318.582031 239.089844 C 313.304688 228.796875 305.132812 220.136719 295.519531 213.773438 C 285.878906 207.417969 274.8125 203.546875 263.3125 202.507812 C 261.804688 202.371094 260.292969 202.289062 258.777344 202.265625 C 256.988281 202.242188 230.058594 210.011719 221.039062 216.355469 C 212.019531 222.621094 204.605469 230.921875 199.386719 240.582031 C 194.175781 250.296875 191.613281 261.210938 191.957031 272.230469 C 192.402344 283.316406 195.492188 294.136719 200.964844 303.785156 C 206.363281 313.402344 214.03125 321.554688 223.296875 327.535156 C 232.695312 333.53125 242.136719 349.4375 253.234375 350 C 264.414062 350.566406 277.167969 335.5625 287.363281 331.007812 C 297.5625 326.414062 306.378906 319.226562 312.933594 310.164062 C 319.304688 301.28125 323.425781 290.984375 324.945312 280.160156 C 326.519531 269.074219 325.785156 257.644531 322 247.050781 C 321.03125 244.328125 319.886719 241.667969 318.582031 239.089844 C 317.492188 236.941406 314.292969 236.152344 312.292969 237.441406 C 310.152344 238.761719 309.425781 241.53125 310.644531 243.730469 C 311.285156 244.992188 311.882812 246.277344 312.429688 247.578125 L 311.96875 246.480469 C 314.050781 251.492188 315.46875 256.753906 316.183594 262.136719 L 316.019531 260.914062 C 316.777344 266.75 316.761719 272.660156 315.976562 278.496094 L 316.140625 277.273438 C 315.347656 283.105469 313.789062 288.808594 311.511719 294.234375 L 311.976562 293.136719 C 310.804688 295.90625 309.4375 298.589844 307.886719 301.167969 C 307.101562 302.46875 306.269531 303.738281 305.386719 304.980469 C 305 305.523438 304.601562 306.058594 304.199219 306.59375 C 303.671875 307.289062 304.914062 305.683594 304.371094 306.367188 C 304.277344 306.484375 304.1875 306.597656 304.09375 306.714844 C 303.816406 307.0625 303.535156 307.40625 303.246094 307.75 C 301.335938 310.03125 299.253906 312.15625 297.011719 314.113281 C 296.453125 314.601562 295.886719 315.078125 295.308594 315.542969 C 295.023438 315.773438 294.738281 316.015625 294.4375 316.234375 C 294.449219 316.222656 295.40625 315.496094 294.839844 315.917969 C 294.664062 316.050781 294.484375 316.1875 294.308594 316.320312 C 293.117188 317.199219 291.898438 318.035156 290.648438 318.828125 C 287.765625 320.644531 284.742188 322.226562 281.605469 323.554688 L 282.703125 323.089844 C 277.292969 325.371094 271.605469 326.925781 265.792969 327.71875 L 267.011719 327.554688 C 261.199219 328.34375 255.308594 328.351562 249.492188 327.585938 L 250.714844 327.75 C 245.429688 327.042969 240.261719 325.644531 235.335938 323.59375 L 236.433594 324.054688 C 233.585938 322.851562 230.835938 321.417969 228.214844 319.769531 C 226.917969 318.953125 225.65625 318.085938 224.425781 317.167969 C 224.25 317.035156 224.074219 316.902344 223.902344 316.773438 C 223.339844 316.347656 224.304688 317.085938 224.3125 317.089844 C 223.984375 316.855469 223.671875 316.605469 223.371094 316.339844 C 222.777344 315.855469 222.191406 315.359375 221.617188 314.855469 C 219.316406 312.828125 217.167969 310.632812 215.1875 308.289062 C 214.691406 307.703125 214.207031 307.109375 213.734375 306.503906 C 213.527344 306.246094 213.152344 305.714844 213.980469 306.828125 C 213.871094 306.683594 213.757812 306.539062 213.648438 306.394531 C 213.382812 306.042969 213.125 305.691406 212.867188 305.335938 C 211.96875 304.089844 211.113281 302.8125 210.300781 301.503906 C 208.46875 298.546875 206.867188 295.453125 205.515625 292.246094 L 205.980469 293.34375 C 203.769531 288.078125 202.257812 282.550781 201.484375 276.894531 L 201.648438 278.117188 C 200.949219 272.902344 200.9375 267.617188 201.617188 262.402344 L 201.453125 263.625 C 202.148438 258.570312 203.507812 253.632812 205.496094 248.9375 L 205.03125 250.035156 C 206.28125 247.097656 207.753906 244.257812 209.441406 241.542969 C 210.285156 240.183594 211.179688 238.859375 212.121094 237.566406 C 212.335938 237.273438 212.554688 236.980469 212.773438 236.691406 C 212.972656 236.429688 213.519531 235.777344 212.585938 236.929688 C 212.679688 236.816406 212.765625 236.699219 212.855469 236.585938 C 213.375 235.929688 213.90625 235.285156 214.449219 234.648438 C 216.507812 232.238281 218.734375 229.980469 221.117188 227.890625 C 221.71875 227.363281 222.332031 226.847656 222.953125 226.339844 C 223.234375 226.113281 223.519531 225.882812 223.804688 225.660156 C 223.917969 225.570312 224.035156 225.480469 224.148438 225.390625 C 222.925781 226.363281 223.808594 225.65625 224.085938 225.449219 C 225.367188 224.488281 226.683594 223.578125 228.03125 222.710938 C 231.027344 220.796875 234.183594 219.132812 237.460938 217.742188 L 236.363281 218.207031 C 241.117188 216.210938 262.183594 211.496094 266.015625 212.007812 L 264.796875 211.84375 C 270.425781 212.632812 275.933594 214.152344 281.167969 216.371094 L 280.070312 215.90625 C 282.726562 217.035156 285.304688 218.328125 287.792969 219.785156 C 289.035156 220.515625 290.253906 221.285156 291.449219 222.09375 C 292.015625 222.476562 292.574219 222.867188 293.128906 223.265625 C 293.402344 223.464844 293.679688 223.667969 293.953125 223.871094 C 294.105469 223.984375 294.253906 224.101562 294.40625 224.214844 C 295.042969 224.691406 293.527344 223.523438 294.195312 224.050781 C 296.429688 225.808594 298.554688 227.703125 300.550781 229.722656 C 301.53125 230.722656 302.476562 231.753906 303.390625 232.816406 C 303.859375 233.359375 304.320312 233.914062 304.769531 234.476562 C 304.992188 234.753906 305.75 235.761719 304.820312 234.527344 C 305.046875 234.828125 305.277344 235.128906 305.503906 235.433594 C 307.4375 238.054688 309.160156 240.832031 310.644531 243.730469 C 311.742188 245.875 314.925781 246.675781 316.933594 245.382812 C 319.074219 244.0625 319.800781 241.292969 318.582031 239.089844 Z M 318.582031 239.089844 "/>
<path style=" stroke:none;fill-rule:nonzero;fill:rgb(24.705882%,23.921569%,33.725491%);fill-opacity:1;" d="M 265.03125 314.113281 C 264.058594 314.160156 263.160156 313.59375 262.785156 312.695312 C 262.410156 311.796875 262.636719 310.757812 263.351562 310.097656 C 263.410156 309.867188 263.453125 309.699219 263.511719 309.46875 C 263.488281 309.417969 263.46875 309.367188 263.445312 309.316406 C 261.316406 304.230469 247.707031 318.410156 247.121094 323.1875 C 246.859375 325.300781 246.96875 327.445312 247.441406 329.519531 C 243.035156 319.902344 240.746094 309.449219 240.730469 298.871094 C 240.730469 296.214844 240.878906 293.5625 241.171875 290.921875 C 241.417969 288.761719 241.753906 286.613281 242.1875 284.480469 C 244.550781 272.914062 249.621094 262.070312 256.988281 252.84375 C 261.199219 253.078125 264.890625 252.433594 265.25 244.269531 C 265.3125 242.816406 266.386719 241.558594 266.625 240.128906 C 266.222656 240.179688 265.816406 240.214844 265.414062 240.242188 C 265.289062 240.246094 265.15625 240.253906 265.03125 240.261719 L 264.984375 240.261719 C 264.082031 240.304688 263.238281 239.808594 262.832031 239.003906 C 262.425781 238.195312 262.527344 237.222656 263.097656 236.523438 C 263.273438 236.308594 263.445312 236.09375 263.621094 235.882812 C 263.882812 235.550781 264.152344 235.230469 264.417969 234.898438 C 264.449219 234.867188 264.476562 234.835938 264.503906 234.800781 C 264.804688 234.425781 265.109375 234.054688 265.414062 233.679688 C 264.859375 232.820312 264.113281 232.101562 263.238281 231.574219 C 260.199219 229.796875 256.003906 231.027344 253.808594 233.777344 C 251.609375 236.527344 251.191406 240.386719 251.957031 243.820312 C 252.710938 246.746094 253.953125 249.519531 255.636719 252.023438 C 255.472656 252.234375 255.300781 252.441406 255.136719 252.652344 C 252.121094 256.527344 249.496094 260.6875 247.296875 265.074219 C 247.917969 260.207031 240.304688 242.636719 237.359375 238.914062 C 233.820312 234.441406 226.566406 236.394531 225.941406 242.0625 C 225.9375 242.117188 225.929688 242.171875 225.925781 242.226562 C 226.363281 242.472656 226.789062 242.734375 227.210938 243.011719 C 228.285156 243.730469 228.8125 245.039062 228.53125 246.304688 C 228.25 247.570312 227.222656 248.53125 225.941406 248.730469 L 225.878906 248.742188 C 220.023438 257.101562 238.792969 278.871094 243.492188 273.984375 C 241.28125 280.253906 239.894531 286.78125 239.367188 293.410156 C 239.066406 297.320312 239.085938 301.246094 239.417969 305.152344 L 239.398438 305.015625 C 238.355469 296.503906 220.445312 283.855469 215.214844 284.90625 C 212.203125 285.515625 209.234375 285.378906 209.691406 288.417969 C 209.699219 288.464844 209.707031 288.515625 209.714844 288.5625 C 210.527344 288.894531 211.316406 289.273438 212.082031 289.703125 C 212.519531 289.949219 212.945312 290.210938 213.367188 290.488281 C 214.441406 291.210938 214.96875 292.515625 214.6875 293.78125 C 214.40625 295.046875 213.378906 296.011719 212.097656 296.207031 L 212.035156 296.21875 C 211.988281 296.226562 211.949219 296.230469 211.902344 296.238281 C 209.238281 305.410156 229.003906 320.21875 241.019531 315.507812 L 241.027344 315.507812 C 242.21875 320.683594 243.945312 325.722656 246.175781 330.542969 L 264.570312 330.542969 C 264.636719 330.335938 264.695312 330.125 264.753906 329.921875 C 263.050781 330.027344 261.34375 329.925781 259.664062 329.617188 C 261.027344 327.941406 262.394531 326.253906 263.757812 324.578125 C 263.789062 324.546875 263.816406 324.515625 263.84375 324.480469 C 264.535156 323.625 265.234375 322.773438 265.925781 321.914062 C 265.964844 319.289062 265.664062 316.664062 265.03125 314.113281 Z M 243.96875 272.671875 L 243.976562 272.65625 L 243.96875 272.683594 Z M 239.894531 309.40625 L 239.734375 309.050781 C 239.742188 308.792969 239.742188 308.535156 239.734375 308.273438 C 239.734375 308.199219 239.722656 308.128906 239.722656 308.054688 C 239.78125 308.511719 239.835938 308.964844 239.902344 309.421875 Z M 239.894531 309.40625 "/>
<path style=" stroke:none;fill-rule:nonzero;fill:rgb(24.705882%,23.921569%,33.725491%);fill-opacity:1;" d="M 65.109375 269.089844 C 65.109375 265.367188 62.089844 262.347656 58.367188 262.347656 C 54.644531 262.347656 51.625 265.367188 51.625 269.089844 C 51.625 272.8125 54.644531 275.832031 58.367188 275.832031 C 62.089844 275.832031 65.109375 272.8125 65.109375 269.089844 Z M 65.109375 269.089844 "/>
<path style=" stroke:none;fill-rule:nonzero;fill:rgb(24.705882%,23.921569%,33.725491%);fill-opacity:1;" d="M 145.996094 342.644531 C 145.996094 338.921875 142.980469 335.902344 139.257812 335.902344 C 135.53125 335.902344 132.515625 338.921875 132.515625 342.644531 C 132.515625 346.367188 135.53125 349.386719 139.257812 349.386719 C 142.980469 349.386719 145.996094 346.367188 145.996094 342.644531 Z M 145.996094 342.644531 "/>
<path style=" stroke:none;fill-rule:nonzero;fill:rgb(24.705882%,23.921569%,33.725491%);fill-opacity:1;" d="M 453.003906 342.644531 C 453.003906 338.921875 449.988281 335.902344 446.265625 335.902344 C 442.542969 335.902344 439.523438 338.921875 439.523438 342.644531 C 439.523438 346.367188 442.542969 349.386719 446.265625 349.386719 C 449.988281 349.386719 453.003906 346.367188 453.003906 342.644531 Z M 453.003906 342.644531 "/>
<path style=" stroke:none;fill-rule:nonzero;fill:rgb(24.705882%,23.921569%,33.725491%);fill-opacity:1;" d="M 469.550781 256.832031 C 469.550781 253.105469 466.53125 250.085938 462.808594 250.085938 C 459.085938 250.085938 456.070312 253.105469 456.070312 256.832031 C 456.070312 260.554688 459.085938 263.574219 462.808594 263.574219 C 466.53125 263.574219 469.550781 260.554688 469.550781 256.832031 Z M 469.550781 256.832031 "/>
<path style=" stroke:none;fill-rule:nonzero;fill:rgb(24.705882%,23.921569%,33.725491%);fill-opacity:1;" d="M 449.941406 194.308594 C 449.941406 190.585938 446.921875 187.566406 443.199219 187.566406 C 439.476562 187.566406 436.460938 190.585938 436.460938 194.308594 C 436.460938 198.03125 439.476562 201.050781 443.199219 201.050781 C 446.921875 201.050781 449.941406 198.03125 449.941406 194.308594 Z M 449.941406 194.308594 "/>
<path style=" stroke:none;fill-rule:nonzero;fill:rgb(24.705882%,23.921569%,33.725491%);fill-opacity:1;" d="M 161.929688 256.832031 C 161.921875 260.40625 159.109375 263.347656 155.535156 263.519531 C 151.964844 263.6875 148.886719 261.023438 148.542969 257.464844 C 148.195312 253.902344 150.703125 250.699219 154.238281 250.175781 C 157.777344 249.652344 161.101562 251.996094 161.800781 255.507812 C 161.886719 255.941406 161.929688 256.386719 161.929688 256.832031 Z M 161.929688 256.832031 "/>
<path style=" stroke:none;fill-rule:nonzero;fill:rgb(24.705882%,23.921569%,33.725491%);fill-opacity:1;" d="M 303.484375 213.921875 C 303.484375 210.199219 300.464844 207.179688 296.742188 207.179688 C 293.019531 207.179688 290.003906 210.199219 290.003906 213.921875 C 290.003906 217.648438 293.019531 220.664062 296.742188 220.664062 C 300.464844 220.664062 303.484375 217.648438 303.484375 213.921875 Z M 303.484375 213.921875 "/>
<path style=" stroke:none;fill-rule:nonzero;fill:rgb(24.705882%,23.921569%,33.725491%);fill-opacity:1;" d="M 229.949219 213.921875 C 229.941406 217.5 227.128906 220.441406 223.558594 220.609375 C 219.984375 220.78125 216.90625 218.117188 216.5625 214.554688 C 216.214844 210.996094 218.722656 207.789062 222.261719 207.269531 C 225.796875 206.746094 229.125 209.089844 229.820312 212.597656 C 229.90625 213.035156 229.949219 213.476562 229.949219 213.921875 Z M 229.949219 213.921875 "/>
<path style=" stroke:none;fill-rule:nonzero;fill:rgb(24.705882%,23.921569%,33.725491%);fill-opacity:1;" d="M 142.933594 194.308594 C 142.925781 197.886719 140.113281 200.828125 136.539062 200.996094 C 132.96875 201.164062 129.890625 198.503906 129.546875 194.941406 C 129.199219 191.382812 131.707031 188.175781 135.242188 187.652344 C 138.78125 187.128906 142.105469 189.476562 142.804688 192.984375 C 142.890625 193.421875 142.933594 193.863281 142.933594 194.308594 Z M 142.933594 194.308594 "/>
<path style=" stroke:none;fill-rule:nonzero;fill:rgb(24.705882%,23.921569%,33.725491%);fill-opacity:1;" d="M 373.953125 271.542969 C 373.953125 267.816406 370.9375 264.796875 367.214844 264.796875 C 363.492188 264.796875 360.472656 267.816406 360.472656 271.542969 C 360.472656 275.265625 363.492188 278.285156 367.214844 278.285156 C 370.9375 278.285156 373.953125 275.265625 373.953125 271.542969 Z M 373.953125 271.542969 "/>
<path style=" stroke:none;fill-rule:nonzero;fill:rgb(24.705882%,23.921569%,33.725491%);fill-opacity:1;" d="M 271.007812 207.179688 C 271.007812 201.765625 266.617188 197.371094 261.203125 197.371094 C 255.785156 197.371094 251.398438 201.765625 251.398438 207.179688 C 251.398438 212.597656 255.785156 216.988281 261.203125 216.988281 C 266.617188 216.988281 271.007812 212.597656 271.007812 207.179688 Z M 271.007812 207.179688 "/>
<path style=" stroke:none;fill-rule:nonzero;fill:rgb(79.215688%,79.215688%,79.215688%);fill-opacity:1;" d="M 526.351562 349.902344 L 0.730469 350.089844 C 0.328125 350.089844 0 349.765625 0 349.359375 C 0 348.957031 0.328125 348.632812 0.730469 348.632812 L 526.351562 348.441406 C 526.753906 348.445312 527.078125 348.769531 527.078125 349.171875 C 527.078125 349.574219 526.753906 349.902344 526.351562 349.902344 Z M 526.351562 349.902344 "/>
</g>
</svg>
